<?xml version="1.0" encoding="iso-8859-1"?>
<!-- Generator: Adobe Illustrator 18.0.0, SVG Export Plug-In . SVG Version: 6.00 Build 0)  -->
<!DOCTYPE svg PUBLIC "-//W3C//DTD SVG 1.1//EN" "http://www.w3.org/Graphics/SVG/1.1/DTD/svg11.dtd">
<svg xmlns="http://www.w3.org/2000/svg" xmlns:xlink="http://www.w3.org/1999/xlink" version="1.1" id="Capa_1" x="0px" y="0px" viewBox="0 0 443.139 443.139" style="enable-background:new 0 0 443.139 443.139;" xml:space="preserve" width="512px" height="512px">
<g>
	<path d="M341.014,0.003H39.648C39.609,0.003,39.571,0,39.532,0c-6.637,0-12.875,2.583-17.565,7.274   c-4.698,4.697-7.285,10.939-7.285,17.576v329.639c0,2.761,2.239,5,5,5h16.69v78.65c0,2.761,2.239,5,5,5h299.99c2.761,0,5-2.239,5-5   v-14.157h14.496c2.761,0,5-2.239,5-5V24.847C365.858,11.148,354.713,0.003,341.014,0.003z M64.374,390.984h291.485v6.499H64.374   V390.984z M64.374,380.984V58h291.485v322.983H64.374z M36.373,36.5v312.989h-11.69V24.85c0-3.965,1.547-7.696,4.356-10.505   c2.801-2.802,6.527-4.344,10.491-4.345v0.003h0.061c8.156,0.032,14.783,6.678,14.783,14.847v6.65h-13   C38.611,31.5,36.373,33.739,36.373,36.5z M336.362,433.139H46.373V41.5h8l0.001,377.482c0,2.761,2.239,5,5,5h276.989V433.139z    M64.374,413.982v-6.499h291.485v6.499H64.374z M355.858,48H64.374V24.847h-0.001c-0.001-5.56-1.836-10.7-4.933-14.844h281.574   c8.186,0,14.845,6.659,14.845,14.844V48z" fill="#FFFFFF"/>
	<path d="M92.622,126.997c0,2.761,2.239,5,5,5c2.842,0,4.008,0.996,6.125,2.803c2.569,2.193,6.088,5.197,12.618,5.197   s10.049-3.004,12.619-5.197c2.118-1.808,3.284-2.803,6.127-2.803c2.844,0,4.011,0.996,6.129,2.803   c2.57,2.193,6.089,5.197,12.62,5.197s10.049-3.004,12.619-5.197c2.118-1.808,3.284-2.803,6.126-2.803   c2.844,0,4.01,0.996,6.128,2.803c2.569,2.193,6.089,5.197,12.619,5.197s10.05-3.003,12.62-5.197   c2.118-1.808,3.285-2.803,6.128-2.803c2.844,0,4.011,0.996,6.129,2.803c2.57,2.193,6.09,5.197,12.621,5.197   c6.53,0,10.049-3.004,12.619-5.197c2.118-1.808,3.284-2.803,6.126-2.803c2.845,0,4.012,0.996,6.13,2.804   c2.57,2.193,6.09,5.196,12.622,5.196s10.051-3.003,12.621-5.196c2.119-1.808,3.286-2.804,6.131-2.804   c2.846,0,4.013,0.996,6.132,2.804c2.57,2.193,6.091,5.196,12.623,5.196s10.052-3.003,12.623-5.196   c2.119-1.808,3.287-2.804,6.133-2.804c2.761,0,5-2.239,5-5s-2.239-5-5-5c-6.532,0-10.052,3.003-12.623,5.196   c-2.119,1.808-3.287,2.804-6.132,2.804s-4.013-0.996-6.132-2.804c-2.57-2.193-6.091-5.196-12.623-5.196s-10.052,3.003-12.622,5.196   c-2.119,1.808-3.286,2.804-6.13,2.804s-4.012-0.996-6.13-2.804c-2.57-2.193-6.09-5.196-12.622-5.196   c-6.53,0-10.049,3.004-12.619,5.197c-2.118,1.808-3.284,2.803-6.126,2.803c-2.844,0-4.011-0.996-6.129-2.803   c-2.57-2.193-6.09-5.197-12.621-5.197s-10.05,3.003-12.62,5.197c-2.118,1.808-3.285,2.803-6.128,2.803s-4.01-0.996-6.127-2.803   c-2.57-2.193-6.089-5.197-12.62-5.197c-6.53,0-10.049,3.004-12.619,5.197c-2.118,1.808-3.284,2.803-6.127,2.803   c-2.843,0-4.01-0.996-6.128-2.803c-2.57-2.193-6.089-5.197-12.62-5.197c-6.53,0-10.049,3.004-12.619,5.197   c-2.118,1.808-3.284,2.803-6.126,2.803c-2.842,0-4.009-0.996-6.126-2.803c-2.569-2.193-6.088-5.197-12.618-5.197   C94.86,121.997,92.622,124.235,92.622,126.997z" fill="#FFFFFF"/>
	<path d="M322.61,157.745c-6.532,0-10.052,3.003-12.623,5.196c-2.119,1.808-3.287,2.804-6.132,2.804s-4.013-0.996-6.132-2.804   c-2.57-2.193-6.091-5.196-12.623-5.196s-10.052,3.003-12.622,5.196c-2.119,1.808-3.286,2.804-6.13,2.804s-4.012-0.996-6.13-2.804   c-2.57-2.193-6.09-5.196-12.622-5.196c-6.53,0-10.049,3.004-12.619,5.197c-2.118,1.808-3.284,2.803-6.126,2.803   c-2.844,0-4.011-0.996-6.129-2.803c-2.57-2.193-6.09-5.197-12.621-5.197s-10.05,3.003-12.62,5.197   c-2.118,1.808-3.285,2.803-6.128,2.803s-4.01-0.996-6.127-2.803c-2.57-2.193-6.089-5.197-12.62-5.197   c-6.53,0-10.049,3.004-12.619,5.197c-2.118,1.808-3.284,2.803-6.127,2.803c-2.843,0-4.01-0.996-6.128-2.803   c-2.57-2.193-6.089-5.197-12.62-5.197c-6.53,0-10.049,3.004-12.619,5.197c-2.118,1.808-3.284,2.803-6.126,2.803   c-2.842,0-4.009-0.996-6.126-2.803c-2.569-2.193-6.088-5.197-12.618-5.197c-2.761,0-5,2.239-5,5s2.239,5,5,5   c2.842,0,4.008,0.996,6.125,2.803c2.569,2.193,6.088,5.197,12.618,5.197s10.049-3.004,12.619-5.197   c2.118-1.808,3.284-2.803,6.127-2.803c2.844,0,4.011,0.996,6.129,2.803c2.57,2.193,6.089,5.197,12.62,5.197   s10.049-3.004,12.619-5.197c2.118-1.808,3.284-2.803,6.126-2.803c2.844,0,4.01,0.996,6.128,2.803   c2.569,2.193,6.089,5.197,12.619,5.197s10.05-3.003,12.62-5.197c2.118-1.808,3.285-2.803,6.128-2.803   c2.844,0,4.011,0.996,6.129,2.803c2.57,2.193,6.09,5.197,12.621,5.197c6.53,0,10.049-3.004,12.619-5.197   c2.118-1.808,3.284-2.803,6.126-2.803c2.845,0,4.012,0.996,6.13,2.804c2.57,2.193,6.09,5.196,12.622,5.196   s10.051-3.003,12.621-5.196c2.119-1.808,3.286-2.804,6.131-2.804c2.846,0,4.013,0.996,6.132,2.804   c2.57,2.193,6.091,5.196,12.623,5.196s10.052-3.003,12.623-5.196c2.119-1.808,3.287-2.804,6.133-2.804c2.761,0,5-2.239,5-5   S325.372,157.745,322.61,157.745z" fill="#FFFFFF"/>
	<path d="M322.61,193.493c-6.532,0-10.052,3.003-12.623,5.196c-2.119,1.808-3.287,2.804-6.132,2.804s-4.013-0.996-6.132-2.804   c-2.57-2.193-6.091-5.196-12.623-5.196s-10.052,3.003-12.622,5.196c-2.119,1.808-3.286,2.804-6.13,2.804s-4.012-0.996-6.13-2.804   c-2.57-2.193-6.09-5.196-12.622-5.196c-6.53,0-10.049,3.004-12.619,5.197c-2.118,1.808-3.284,2.803-6.126,2.803   c-2.844,0-4.011-0.996-6.129-2.803c-2.57-2.193-6.09-5.197-12.621-5.197s-10.05,3.003-12.62,5.197   c-2.118,1.808-3.285,2.803-6.128,2.803s-4.01-0.996-6.127-2.803c-2.57-2.193-6.089-5.197-12.62-5.197   c-6.53,0-10.049,3.004-12.619,5.197c-2.118,1.808-3.284,2.803-6.127,2.803c-2.843,0-4.01-0.996-6.128-2.803   c-2.57-2.193-6.089-5.197-12.62-5.197c-6.53,0-10.049,3.004-12.619,5.197c-2.118,1.808-3.284,2.803-6.126,2.803   c-2.842,0-4.009-0.996-6.126-2.803c-2.569-2.193-6.088-5.197-12.618-5.197c-2.761,0-5,2.239-5,5s2.239,5,5,5   c2.842,0,4.008,0.996,6.125,2.803c2.569,2.193,6.088,5.197,12.618,5.197s10.049-3.004,12.619-5.197   c2.118-1.808,3.284-2.803,6.127-2.803c2.844,0,4.011,0.996,6.129,2.803c2.57,2.193,6.089,5.197,12.62,5.197   s10.049-3.004,12.619-5.197c2.118-1.808,3.284-2.803,6.126-2.803c2.844,0,4.01,0.996,6.128,2.803   c2.569,2.193,6.089,5.197,12.619,5.197s10.05-3.003,12.62-5.197c2.118-1.808,3.285-2.803,6.128-2.803   c2.844,0,4.011,0.996,6.129,2.803c2.57,2.193,6.09,5.197,12.621,5.197c6.53,0,10.049-3.004,12.619-5.197   c2.118-1.808,3.284-2.803,6.126-2.803c2.845,0,4.012,0.996,6.13,2.804c2.57,2.193,6.09,5.196,12.622,5.196   s10.051-3.003,12.621-5.196c2.119-1.808,3.286-2.804,6.131-2.804c2.846,0,4.013,0.996,6.132,2.804   c2.57,2.193,6.091,5.196,12.623,5.196s10.052-3.003,12.623-5.196c2.119-1.808,3.287-2.804,6.133-2.804c2.761,0,5-2.239,5-5   S325.372,193.493,322.61,193.493z" fill="#FFFFFF"/>
	<path d="M327.61,234.241c0-2.761-2.239-5-5-5c-6.532,0-10.052,3.003-12.623,5.196c-2.119,1.808-3.287,2.804-6.132,2.804   s-4.013-0.996-6.132-2.804c-2.57-2.193-6.091-5.196-12.623-5.196s-10.052,3.003-12.622,5.196c-2.119,1.808-3.286,2.804-6.13,2.804   s-4.012-0.996-6.13-2.804c-2.57-2.193-6.09-5.196-12.622-5.196c-6.53,0-10.049,3.004-12.619,5.197   c-2.118,1.808-3.284,2.803-6.126,2.803c-2.844,0-4.011-0.996-6.129-2.803c-2.57-2.193-6.09-5.197-12.621-5.197   s-10.05,3.003-12.62,5.197c-2.118,1.808-3.285,2.803-6.128,2.803s-4.01-0.996-6.127-2.803c-2.57-2.193-6.089-5.197-12.62-5.197   c-6.53,0-10.049,3.004-12.619,5.197c-2.118,1.808-3.284,2.803-6.127,2.803c-2.843,0-4.01-0.996-6.128-2.803   c-2.57-2.193-6.089-5.197-12.62-5.197c-6.53,0-10.049,3.004-12.619,5.197c-2.118,1.808-3.284,2.803-6.126,2.803   c-2.842,0-4.009-0.996-6.126-2.803c-2.569-2.193-6.088-5.197-12.618-5.197c-2.761,0-5,2.239-5,5s2.239,5,5,5   c2.842,0,4.008,0.996,6.125,2.803c2.569,2.193,6.088,5.197,12.618,5.197s10.049-3.004,12.619-5.197   c2.118-1.808,3.284-2.803,6.127-2.803c2.844,0,4.011,0.996,6.129,2.803c2.57,2.193,6.089,5.197,12.62,5.197   s10.049-3.004,12.619-5.197c2.118-1.808,3.284-2.803,6.126-2.803c2.844,0,4.01,0.996,6.128,2.803   c2.569,2.193,6.089,5.197,12.619,5.197s10.05-3.003,12.62-5.197c2.118-1.808,3.285-2.803,6.128-2.803   c2.844,0,4.011,0.996,6.129,2.803c2.57,2.193,6.09,5.197,12.621,5.197c6.53,0,10.049-3.004,12.619-5.197   c2.118-1.808,3.284-2.803,6.126-2.803c2.845,0,4.012,0.996,6.13,2.804c2.57,2.193,6.09,5.196,12.622,5.196   s10.051-3.003,12.621-5.196c2.119-1.808,3.286-2.804,6.131-2.804c2.846,0,4.013,0.996,6.132,2.804   c2.57,2.193,6.091,5.196,12.623,5.196s10.052-3.003,12.623-5.196c2.119-1.808,3.287-2.804,6.133-2.804   C325.372,239.241,327.61,237.002,327.61,234.241z" fill="#FFFFFF"/>
	<path d="M228.851,272.989c-2.844,0-4.011-0.996-6.129-2.803c-2.57-2.193-6.09-5.197-12.621-5.197s-10.05,3.003-12.62,5.197   c-2.118,1.808-3.285,2.803-6.128,2.803c-2.843,0-4.01-0.996-6.127-2.803c-2.57-2.193-6.089-5.197-12.62-5.197   c-6.53,0-10.049,3.004-12.619,5.197c-2.118,1.808-3.284,2.803-6.127,2.803c-2.843,0-4.01-0.996-6.128-2.803   c-2.57-2.193-6.089-5.197-12.62-5.197c-6.53,0-10.049,3.004-12.619,5.197c-2.118,1.807-3.284,2.803-6.126,2.803   s-4.009-0.996-6.126-2.803c-2.569-2.193-6.088-5.197-12.618-5.197c-2.761,0-5,2.239-5,5s2.239,5,5,5   c2.842,0,4.008,0.996,6.125,2.803c2.569,2.193,6.088,5.197,12.618,5.197s10.049-3.004,12.619-5.197   c2.118-1.808,3.284-2.803,6.127-2.803c2.844,0,4.011,0.996,6.129,2.803c2.57,2.193,6.089,5.197,12.62,5.197   s10.049-3.004,12.619-5.197c2.118-1.807,3.284-2.803,6.126-2.803c2.844,0,4.01,0.996,6.128,2.803   c2.569,2.193,6.089,5.197,12.619,5.197c6.531,0,10.05-3.003,12.62-5.197c2.118-1.808,3.285-2.803,6.128-2.803   c2.844,0,4.011,0.996,6.129,2.803c2.57,2.193,6.09,5.197,12.621,5.197c2.761,0,5-2.239,5-5S231.612,272.989,228.851,272.989z" fill="#FFFFFF"/>
	<path d="M185.367,31.501H77.373c-2.761,0-5,2.239-5,5s2.239,5,5,5h107.995c2.761,0,5-2.239,5-5S188.128,31.501,185.367,31.501z" fill="#FFFFFF"/>
	<path d="M219.565,31.501h-14.999c-2.761,0-5,2.239-5,5s2.239,5,5,5h14.999c2.761,0,5-2.239,5-5S222.326,31.501,219.565,31.501z" fill="#FFFFFF"/>
	<path d="M76.172,63c-2.761,0-5,2.239-5,5v49.729c0,2.761,2.239,5,5,5s5-2.239,5-5V68C81.172,65.238,78.934,63,76.172,63z" fill="#FFFFFF"/>
	<path d="M97.671,81.729V68c0-2.761-2.239-5-5-5s-5,2.239-5,5v13.729c0,2.761,2.239,5,5,5S97.671,84.49,97.671,81.729z" fill="#FFFFFF"/>
	<path d="M341.359,262.49c-2.761,0-5,2.239-5,5v103.495c0,2.761,2.239,5,5,5s5-2.239,5-5V267.49   C346.359,264.729,344.121,262.49,341.359,262.49z" fill="#FFFFFF"/>
	<path d="M324.86,311.987c-2.761,0-5,2.239-5,5v8.075c0,2.761,2.239,5,5,5s5-2.239,5-5v-8.075   C329.86,314.226,327.621,311.987,324.86,311.987z" fill="#FFFFFF"/>
	<path d="M324.86,335.129c-2.761,0-5,2.239-5,5v30.855c0,2.761,2.239,5,5,5s5-2.239,5-5v-30.855   C329.86,337.368,327.621,335.129,324.86,335.129z" fill="#FFFFFF"/>
	<path d="M428.166,64.975l-14.646-41.028c-0.71-1.99-2.596-3.319-4.709-3.319s-3.999,1.329-4.709,3.319l-14.645,41.028   c-0.192,0.539-0.291,1.108-0.291,1.681v350.617c0,10.833,8.813,19.645,19.645,19.645s19.646-8.813,19.646-19.645V66.656   C428.457,66.083,428.358,65.514,428.166,64.975z M408.812,40.501l7.552,21.155H401.26L408.812,40.501z M399.167,385.464V71.656   h19.291v313.808H399.167z M418.457,395.464v4h-19.291v-4H418.457z M408.812,426.917c-5.318,0-9.645-4.327-9.645-9.645v-7.809   h19.291v7.809C418.457,422.591,414.13,426.917,408.812,426.917z" fill="#FFFFFF"/>
</g>
<g>
</g>
<g>
</g>
<g>
</g>
<g>
</g>
<g>
</g>
<g>
</g>
<g>
</g>
<g>
</g>
<g>
</g>
<g>
</g>
<g>
</g>
<g>
</g>
<g>
</g>
<g>
</g>
<g>
</g>
</svg>
